<svg width="38" height="38" viewBox="0 0 38 38" fill="none" xmlns="http://www.w3.org/2000/svg">
<path d="M19.1999 20.3C19.0832 20.2833 18.9332 20.2833 18.7999 20.3C15.8665 20.2 13.5332 17.8 13.5332 14.85C13.5332 11.8333 15.9665 9.3833 18.9999 9.3833C22.0165 9.3833 24.4665 11.8333 24.4665 14.85C24.4499 17.8 22.1332 20.2 19.1999 20.3Z" stroke="#172C4B" stroke-width="4" stroke-linecap="round" stroke-linejoin="round"/>
<path d="M30.2333 31.2999C27.2666 34.0165 23.3333 35.6665 18.9999 35.6665C14.6666 35.6665 10.7333 34.0165 7.7666 31.2999C7.93327 29.7332 8.93327 28.1999 10.7166 26.9999C15.2833 23.9665 22.7499 23.9665 27.2833 26.9999C29.0666 28.1999 30.0666 29.7332 30.2333 31.2999Z" stroke="#172C4B" stroke-width="4" stroke-linecap="round" stroke-linejoin="round"/>
<path d="M19.0002 35.6666C28.2049 35.6666 35.6668 28.2047 35.6668 18.9999C35.6668 9.79517 28.2049 2.33325 19.0002 2.33325C9.79542 2.33325 2.3335 9.79517 2.3335 18.9999C2.3335 28.2047 9.79542 35.6666 19.0002 35.6666Z" stroke="#172C4B" stroke-width="4" stroke-linecap="round" stroke-linejoin="round"/>
</svg>
