<svg width="333" height="381" viewBox="0 0 333 381" fill="none" xmlns="http://www.w3.org/2000/svg">
<path d="M161.02 379.649C161.02 364.956 161.02 350.264 161.02 335.536C152.533 334.217 144.474 333.361 136.593 331.649C67.5885 316.529 15.0598 259.828 2.22188 189.576C-8.76171 129.273 20.8726 51.8884 93.4428 18.0104C149.894 -8.37874 206.381 -6.27474 259.267 27.6746C300.241 53.9567 323.171 93.7188 330.803 141.184C338.398 188.256 326.238 230.978 295.32 267.852C273.281 294.134 247.213 314.924 214.655 326.906C212.301 327.762 210.126 329.616 208.343 331.471C193.936 346.555 179.635 361.711 165.371 376.867C164.337 377.937 163.624 379.292 162.732 380.54C162.197 380.219 161.591 379.934 161.02 379.649ZM186.732 180.375C187.196 180.125 187.695 179.911 188.158 179.662C185.698 174.741 184.271 168.857 180.634 165.076C152.533 135.87 124.04 107.092 95.5824 78.2062C87.2734 69.7546 74.1858 69.5406 65.9838 77.4217C57.6391 85.4454 57.7104 100.994 64.914 108.126C93.7994 136.797 121.972 166.218 150.393 195.388C157.098 202.271 165.121 204.054 173.68 200.559C181.739 197.278 186.696 189.611 186.732 180.375ZM273.21 123.353C258.732 137.831 245.287 151.133 232.057 164.684C230.702 166.075 230.131 168.678 230.096 170.747C229.953 193.855 229.989 216.963 230.025 240.072C230.025 250.841 240.402 260.22 251.956 260.113C263.368 260.006 273.174 250.806 273.21 240.072C273.246 221.884 273.246 203.697 273.246 185.51C273.21 165.29 273.21 145.071 273.21 123.353ZM59.3508 126.063C59.4222 125.6 59.2439 126.277 59.2439 126.991C59.2439 165.611 59.1725 204.268 59.3152 242.889C59.3508 253.801 68.5514 262.431 79.535 262.574C90.3759 262.681 99.8261 254.051 100.076 243.174C100.682 218.746 101.039 194.319 101.36 169.891C101.395 168.036 100.611 165.647 99.3625 164.399C86.0609 151.418 72.5811 138.687 59.3508 126.063ZM199.784 176.987C222.357 153.986 243.718 131.947 265.436 110.265C271.819 103.918 273.424 96.6786 271.819 88.4409C270.214 80.2389 265.329 74.2835 257.056 72.0012C249.032 69.7902 242.078 71.4306 235.98 77.8853C218.542 96.3577 200.711 114.438 183.059 132.696C180.598 135.228 178.209 137.796 175.748 140.399C185.84 151.24 197.038 160.69 199.784 176.987Z" fill="#172C4B"/>
</svg>
