<svg width="204" height="116" viewBox="0 0 204 116" fill="none" xmlns="http://www.w3.org/2000/svg">
<path d="M99.3931 88.4445V87.802L98.7583 87.7034C97.1001 87.4458 95.4795 87.2182 93.8869 86.9945C90.439 86.5103 87.1221 86.0445 83.8388 85.3319C41.8766 76.142 9.91211 41.6726 2.09892 -1.06018C-4.57412 -37.6786 13.4411 -84.7071 57.5613 -105.293L57.5617 -105.293C91.9259 -121.349 126.256 -120.063 158.425 -99.424L158.425 -99.4238C183.322 -83.4626 197.267 -59.318 201.913 -30.436L201.913 -30.4356C206.531 -1.83448 199.147 24.1053 180.342 46.52C166.905 62.5364 151.038 75.1747 131.242 82.4562C129.636 83.0406 128.206 84.278 127.093 85.4354L127.091 85.4372C118.264 94.6743 109.503 103.955 100.765 113.234C100.403 113.609 100.107 114.024 99.8434 114.418C99.7441 114.567 99.6525 114.708 99.5636 114.845C99.5258 114.904 99.4886 114.961 99.4514 115.018C99.4319 115.008 99.4125 114.998 99.3931 114.989V114.98V114.927V114.874V114.822V114.769V114.716V114.663V114.611V114.558V114.505V114.453V114.4V114.347V114.294V114.242V114.189V114.136V114.084V114.031V113.978V113.926V113.873V113.82V113.767V113.715V113.662V113.609V113.557V113.504V113.451V113.398V113.346V113.293V113.24V113.188V113.135V113.082V113.029V112.977V112.924V112.871V112.819V112.766V112.713V112.66V112.608V112.555V112.502V112.45V112.397V112.344V112.291V112.239V112.186V112.133V112.081V112.028V111.975V111.922V111.87V111.817V111.764V111.712V111.659V111.606V111.553V111.501V111.448V111.395V111.343V111.29V111.237V111.184V111.132V111.079V111.026V110.974V110.921V110.868V110.815V110.763V110.71V110.657V110.605V110.552V110.499V110.446V110.394V110.341V110.288V110.236V110.183V110.13V110.077V110.025V109.972V109.919V109.867V109.814V109.761V109.708V109.656V109.603V109.55V109.498V109.445V109.392V109.339V109.287V109.234V109.181V109.129V109.076V109.023V108.97V108.918V108.865V108.812V108.76V108.707V108.654V108.601V108.549V108.496V108.443V108.391V108.338V108.285V108.232V108.18V108.127V108.074V108.021V107.969V107.916V107.863V107.811V107.758V107.705V107.652V107.6V107.547V107.494V107.442V107.389V107.336V107.283V107.231V107.178V107.125V107.073V107.02V106.967V106.914V106.862V106.809V106.756V106.703V106.651V106.598V106.545V106.493V106.44V106.387V106.334V106.282V106.229V106.176V106.123V106.071V106.018V105.965V105.913V105.86V105.807V105.754V105.702V105.649V105.596V105.543V105.491V105.438V105.385V105.333V105.28V105.227V105.174V105.122V105.069V105.016V104.963V104.911V104.858V104.805V104.753V104.7V104.647V104.594V104.542V104.489V104.436V104.383V104.331V104.278V104.225V104.172V104.12V104.067V104.014V103.962V103.909V103.856V103.803V103.751V103.698V103.645V103.592V103.54V103.487V103.434V103.381V103.329V103.276V103.223V103.171V103.118V103.065V103.012V102.96V102.907V102.854V102.801V102.749V102.696V102.643V102.59V102.538V102.485V102.432V102.379V102.327V102.274V102.221V102.168V102.116V102.063V102.01V101.958V101.905V101.852V101.799V101.747V101.694V101.641V101.588V101.536V101.483V101.43V101.377V101.325V101.272V101.219V101.166V101.114V101.061V101.008V100.955V100.903V100.85V100.797V100.744V100.692V100.639V100.586V100.533V100.481V100.428V100.375V100.322V100.27V100.217V100.164V100.111V100.059V100.006V99.9531V99.9003V99.8476V99.7948V99.7421V99.6893V99.6366V99.5838V99.5311V99.4783V99.4256V99.3728V99.3201V99.2673V99.2145V99.1618V99.109V99.0563V99.0035V98.9507V98.898V98.8452V98.7925V98.7397V98.687V98.6342V98.5814V98.5287V98.4759V98.4231V98.3704V98.3176V98.2649V98.2121V98.1593V98.1066V98.0538V98.001V97.9483V97.8955V97.8428V97.79V97.7372V97.6844V97.6317V97.5789V97.5262V97.4734V97.4206V97.3679V97.3151V97.2623V97.2095V97.1568V97.104V97.0512V96.9985V96.9457V96.8929V96.8402V96.7874V96.7346V96.6818V96.6291V96.5763V96.5235V96.4707V96.418V96.3652V96.3124V96.2596V96.2069V96.1541V96.1013V96.0486V95.9958V95.943V95.8902V95.8374V95.7847V95.7319V95.6791V95.6263V95.5735V95.5208V95.468V95.4152V95.3624V95.3096V95.2569V95.2041V95.1513V95.0985V95.0457V94.9929V94.9402V94.8874V94.8346V94.7818V94.729V94.6762V94.6234V94.5707V94.5179V94.4651V94.4123V94.3595V94.3067V94.2539V94.2011V94.1483V94.0956V94.0428V93.99V93.9372V93.8844V93.8316V93.7788V93.726V93.6732V93.6204V93.5676V93.5148V93.462V93.4092V93.3564V93.3036V93.2509V93.1981V93.1453V93.0925V93.0397V92.9869V92.9341V92.8813V92.8285V92.7757V92.7229V92.6701V92.6173V92.5645V92.5117V92.4588V92.4061V92.3532V92.3004V92.2476V92.1948V92.142V92.0892V92.0364V91.9836V91.9308V91.878V91.8252V91.7724V91.7196V91.6668V91.614V91.5611V91.5083V91.4555V91.4027V91.3499V91.2971V91.2443V91.1915V91.1386V91.0858V91.033V90.9802V90.9274V90.8746V90.8217V90.7689V90.7161V90.6633V90.6105V90.5576V90.5048V90.452V90.3992V90.3464V90.2935V90.2407V90.1879V90.1351V90.0823V90.0294V89.9766V89.9238V89.871V89.8181V89.7653V89.7125V89.6597V89.6068V89.554V89.5012V89.4483V89.3955V89.3427V89.2899V89.237V89.1842V89.1314V89.0785V89.0257V88.9729V88.92V88.8672V88.8144V88.7615V88.7087V88.6559V88.603V88.5502V88.4973V88.4445ZM66.8149 -61.8078C64.2396 -64.4186 61.6641 -67.0295 59.0891 -69.6418C53.7199 -75.0997 45.2329 -75.2553 39.903 -70.1366L39.9028 -70.1365C37.1735 -67.5135 35.8528 -63.6995 35.7731 -60.0073C35.6935 -56.3232 36.848 -52.63 39.2389 -50.2635C52.4234 -37.1836 65.3634 -23.8509 78.3108 -10.5107C82.7349 -5.95233 87.1599 -1.39307 91.5958 3.15726C93.7322 5.34935 96.1126 6.76243 98.6772 7.33171C101.244 7.90141 103.939 7.6136 106.681 6.49454C111.785 4.41814 114.952 -0.361717 115.136 -6.09133C115.143 -6.0946 115.15 -6.09789 115.157 -6.10119L115.163 -6.10439C115.306 -6.17324 115.467 -6.25041 115.624 -6.33492L116.265 -6.6799L115.939 -7.33091C115.471 -8.26655 115.078 -9.23016 114.673 -10.2227C114.433 -10.8126 114.188 -11.4127 113.921 -12.0232C113.227 -13.6101 112.408 -15.1899 111.199 -16.446C96.5236 -31.6905 81.6736 -46.7448 66.8149 -61.8078ZM168.122 -41.4725V-43.2825L166.842 -42.003C164.727 -39.8898 162.649 -37.817 160.599 -35.773C154.052 -29.2459 147.8 -23.0118 141.625 -16.69L141.624 -16.6895C141.091 -16.1426 140.75 -15.4024 140.537 -14.676C140.322 -13.9406 140.222 -13.1581 140.21 -12.467L140.21 -12.4587C140.122 1.69037 140.144 15.839 140.166 29.9841V29.9928C140.166 29.9932 140.166 29.9936 140.166 29.9939C140.167 37.0634 146.925 43.0827 154.358 43.0139C161.712 42.945 168.099 37.0242 168.122 29.9953V29.9942C168.144 18.8577 168.144 7.72118 168.144 -3.41444V-3.41577C168.122 -15.7953 168.122 -28.175 168.122 -41.4725ZM35.5381 -21.5099C35.5299 -3.76746 35.5217 13.9829 35.5872 31.7205C35.6107 38.8449 41.6108 44.4283 48.7144 44.5205L48.7167 44.5205C55.7433 44.5898 61.8944 39.0042 62.0574 31.9099C62.4289 16.9496 62.6474 1.99018 62.844 -12.9658C62.8566 -13.6354 62.7227 -14.3738 62.4846 -15.0483C62.2478 -15.7187 61.887 -16.3853 61.401 -16.8712L61.3944 -16.8775C55.1776 -22.9411 48.8963 -28.9167 42.6716 -34.8384C40.7983 -36.6205 38.9302 -38.3977 37.0704 -40.171C37.0447 -40.2387 36.9935 -40.3428 36.896 -40.4392C36.8093 -40.5251 36.6735 -40.6162 36.4896 -40.6464C36.3067 -40.6764 36.151 -40.6337 36.0448 -40.583C35.8677 -40.4984 35.7759 -40.3683 35.7554 -40.3393L35.7546 -40.3381C35.6999 -40.2607 35.6723 -40.1889 35.6668 -40.1745L35.6663 -40.1731C35.6562 -40.1472 35.6493 -40.1253 35.6455 -40.1126C35.6374 -40.0861 35.6315 -40.062 35.6275 -40.0452C35.6191 -40.0095 35.6113 -39.9702 35.6043 -39.9307C35.5768 -39.7765 35.5435 -39.5184 35.5435 -39.2453C35.5435 -33.3349 35.5408 -27.4228 35.5381 -21.5099ZM121.651 -8.50828L121.895 -7.05825L122.925 -8.10749C126.762 -12.0151 130.541 -15.8765 134.283 -19.6999C144.031 -29.6609 153.528 -39.3643 163.139 -48.9549C167.249 -53.0407 168.28 -57.7371 167.256 -62.9922L167.256 -62.9928C166.224 -68.262 163.047 -72.1563 157.675 -73.6376L157.675 -73.6377C155.116 -74.3423 152.684 -74.4446 150.383 -73.8273C148.081 -73.2096 145.965 -71.886 144.019 -69.827L144.019 -69.8268C136.678 -62.055 129.227 -54.3993 121.771 -46.7389C118.38 -43.2551 114.988 -39.7703 111.605 -36.2732C110.493 -35.1292 109.403 -33.9716 108.306 -32.8073C107.912 -32.3892 107.518 -31.9703 107.121 -31.5508L106.637 -31.0394L107.117 -30.5243C107.996 -29.5802 108.883 -28.6585 109.762 -27.7447C115.146 -22.1476 120.245 -16.8463 121.651 -8.50828Z" stroke="#172C4B" stroke-width="1.5"/>
</svg>
