<svg width="57" height="57" viewBox="0 0 57 57" fill="none" xmlns="http://www.w3.org/2000/svg">
<path d="M7.125 52.25H49.875" stroke="#172C4B" stroke-width="3" stroke-linecap="round" stroke-linejoin="round"/>
<path d="M13.2999 19.9023H9.5C8.19375 19.9023 7.125 20.9711 7.125 22.2773V42.7498C7.125 44.0561 8.19375 45.1248 9.5 45.1248H13.2999C14.6062 45.1248 15.6749 44.0561 15.6749 42.7498V22.2773C15.6749 20.9711 14.6062 19.9023 13.2999 19.9023Z" stroke="#172C4B" stroke-width="3" stroke-linecap="round" stroke-linejoin="round"/>
<path d="M30.4 12.3262H26.6C25.2938 12.3262 24.225 13.3949 24.225 14.7012V42.7499C24.225 44.0562 25.2938 45.1249 26.6 45.1249H30.4C31.7062 45.1249 32.775 44.0562 32.775 42.7499V14.7012C32.775 13.3949 31.7062 12.3262 30.4 12.3262Z" stroke="#172C4B" stroke-width="3" stroke-linecap="round" stroke-linejoin="round"/>
<path d="M47.5 4.75H43.7001C42.3938 4.75 41.3251 5.81875 41.3251 7.125V42.75C41.3251 44.0563 42.3938 45.125 43.7001 45.125H47.5C48.8063 45.125 49.875 44.0563 49.875 42.75V7.125C49.875 5.81875 48.8063 4.75 47.5 4.75Z" stroke="#172C4B" stroke-width="3" stroke-linecap="round" stroke-linejoin="round"/>
</svg>
