<svg width="46" height="46" viewBox="0 0 46 46" fill="none" xmlns="http://www.w3.org/2000/svg">
<path fill-rule="evenodd" clip-rule="evenodd" d="M4.6 23C4.6 12.838 12.838 4.6 23 4.6C33.1621 4.6 41.4 12.838 41.4 23C41.4 32.3831 34.3765 40.1258 25.3 41.2576V27.6H29.9C31.1703 27.6 32.2 26.5703 32.2 25.3C32.2 24.0297 31.1703 23 29.9 23H25.3V18.4C25.3 17.1298 26.3297 16.1 27.6 16.1H28.75C30.0203 16.1 31.05 15.0702 31.05 13.8C31.05 12.5298 30.0203 11.5 28.75 11.5H27.6C23.7891 11.5 20.7 14.5892 20.7 18.4V23H16.1C14.8298 23 13.8 24.0297 13.8 25.3C13.8 26.5703 14.8298 27.6 16.1 27.6H20.7V41.2576C11.6235 40.1258 4.6 32.3831 4.6 23ZM23 46C35.7024 46 46 35.7024 46 23C46 10.2974 35.7024 0 23 0C10.2974 0 0 10.2974 0 23C0 35.7024 10.2974 46 23 46Z" fill="white"/>
</svg>
