<svg width="52" height="46" viewBox="0 0 52 46" fill="none" xmlns="http://www.w3.org/2000/svg">
<path fill-rule="evenodd" clip-rule="evenodd" d="M40.0923 8.08896C39.1371 6.71373 36.5831 4.78365 32.4454 5.61474C30.0329 6.09935 28.5893 7.2954 27.6721 8.86894C26.6947 10.545 26.2226 12.8261 26.2226 15.4816C26.2226 16.9759 25.0112 18.1873 23.5167 18.1873C17.1146 18.1873 11.0213 16.2862 5.89378 11.1409C5.56123 12.9919 5.32921 15.1912 5.43926 17.4717C5.58104 20.4102 6.28371 23.3584 7.94757 25.8829C9.58301 28.3644 12.2768 30.6376 16.7778 32.0643C17.6753 32.3487 18.3603 33.0793 18.5866 33.9931C18.813 34.9068 18.548 35.8728 17.8871 36.5433C16.288 38.1651 14.6798 39.3817 13.0274 40.3447C15.8976 40.6415 18.6623 40.6631 21.2263 40.4313C26.4203 39.9615 30.5583 38.475 33.1462 36.375C38.5919 31.9558 41.5082 25.3707 40.9643 14.3374C40.8751 12.5217 42.6235 10.5669 43.468 9.08245C42.1939 9.3207 40.9167 9.27608 40.0923 8.08896ZM4.31239 2.66327C5.31124 2.54684 6.29226 2.99392 6.85967 3.82415C10.8518 9.66547 15.6467 12.0955 20.9671 12.6483C21.2282 10.3722 21.8424 8.12327 22.997 6.14327C24.6905 3.23818 27.445 1.0994 31.3798 0.309083C36.8169 -0.782981 40.9568 1.18604 43.359 3.59748L48.2073 2.69114C49.243 2.49757 50.2967 2.92265 50.9082 3.78061C51.5194 4.63857 51.5773 5.77338 51.0562 6.68906L46.4036 14.8662C46.8278 26.6673 43.5484 34.903 36.5563 40.5771C32.8472 43.5868 27.5397 45.2939 21.7139 45.821C15.8424 46.3521 9.20555 45.7097 2.60792 43.7832C1.45043 43.4453 0.656277 42.3821 0.660552 41.1764C0.664801 39.9705 1.46642 38.913 2.62627 38.5832C5.94419 37.6397 8.46952 36.8239 10.7523 35.3993C7.50947 33.6776 5.12008 31.4269 3.42897 28.8609C1.07852 25.2944 0.206951 21.3185 0.0339146 17.7325C-0.139095 14.1469 0.379067 10.8259 0.924802 8.42897C1.23546 7.06454 1.59831 5.69375 2.09845 4.38428C2.4617 3.44049 3.31357 2.77973 4.31239 2.66327Z" fill="white"/>
</svg>
