<svg width="46" height="46" viewBox="0 0 46 46" fill="none" xmlns="http://www.w3.org/2000/svg">
<path fill-rule="evenodd" clip-rule="evenodd" d="M33.2222 0C40.2791 0 46 5.72082 46 12.7778V33.2222C46 40.2791 40.2791 46 33.2222 46H12.7778C5.72082 46 0 40.2791 0 33.2222V12.7778C0 5.72082 5.72082 0 12.7778 0H33.2222ZM33.2222 5.11111H12.7778C8.54361 5.11111 5.11111 8.54361 5.11111 12.7778V33.2222C5.11111 37.4565 8.54361 40.8889 12.7778 40.8889H33.2222C37.4565 40.8889 40.8889 37.4565 40.8889 33.2222V12.7778C40.8889 8.54361 37.4565 5.11111 33.2222 5.11111ZM23 12.7778C28.6455 12.7778 33.2222 17.3544 33.2222 23C33.2222 28.6455 28.6455 33.2222 23 33.2222C17.3544 33.2222 12.7778 28.6455 12.7778 23C12.7778 17.3544 17.3544 12.7778 23 12.7778ZM23 17.8889C20.1771 17.8889 17.8889 20.1771 17.8889 23C17.8889 25.8229 20.1771 28.1111 23 28.1111C25.8229 28.1111 28.1111 25.8229 28.1111 23C28.1111 20.1771 25.8229 17.8889 23 17.8889ZM34.5 8.94444C35.9114 8.94444 37.0556 10.0886 37.0556 11.5C37.0556 12.9114 35.9114 14.0556 34.5 14.0556C33.0886 14.0556 31.9444 12.9114 31.9444 11.5C31.9444 10.0886 33.0886 8.94444 34.5 8.94444Z" fill="white"/>
</svg>
