<svg width="34" height="38" viewBox="0 0 34 38" fill="none" xmlns="http://www.w3.org/2000/svg">
<path d="M17 9.73315V15.2832" stroke="#172C4B" stroke-width="4" stroke-miterlimit="10" stroke-linecap="round"/>
<path d="M17.0332 2.33325C10.8998 2.33325 5.93316 7.29992 5.93316 13.4333V16.9333C5.93316 18.0666 5.4665 19.7666 4.88316 20.7333L2.7665 24.2666C1.4665 26.4499 2.3665 28.8833 4.7665 29.6833C12.7332 32.3333 21.3498 32.3333 29.3165 29.6833C31.5665 28.9333 32.5332 26.2999 31.3165 24.2666L29.1998 20.7333C28.6165 19.7666 28.1498 18.0499 28.1498 16.9333V13.4333C28.1332 7.33325 23.1332 2.33325 17.0332 2.33325Z" stroke="#172C4B" stroke-width="4" stroke-miterlimit="10" stroke-linecap="round"/>
<path d="M22.5502 30.3665C22.5502 33.4165 20.0502 35.9165 17.0002 35.9165C15.4835 35.9165 14.0835 35.2831 13.0835 34.2831C12.0835 33.2831 11.4502 31.8831 11.4502 30.3665" stroke="#172C4B" stroke-width="4" stroke-miterlimit="10"/>
</svg>
