<svg width="706" height="806" viewBox="0 0 706 806" fill="none" xmlns="http://www.w3.org/2000/svg">
<path d="M342.133 710.679V710.037L341.498 709.938C335.82 709.056 330.244 708.274 324.748 707.502C312.776 705.821 301.184 704.194 289.752 701.713C143.766 669.756 32.615 549.909 5.44849 401.394C-17.7826 273.975 44.9063 110.424 198.427 38.8265L198.427 38.8263C317.892 -16.9649 437.378 -12.5115 549.271 59.2472L549.643 58.6679L549.272 59.2473C635.938 114.783 684.45 198.8 700.601 299.152C716.669 398.633 690.953 488.901 625.539 566.838C578.879 622.429 523.714 666.372 454.837 691.696C449.682 693.568 444.973 697.599 441.171 701.549L441.169 701.55C410.624 733.501 380.306 765.601 350.065 797.701C348.922 798.883 347.967 800.21 347.072 801.552C346.756 802.025 346.451 802.495 346.148 802.962C345.7 803.65 345.257 804.332 344.792 805.008C344.023 804.58 343.211 804.179 342.431 803.794C342.331 803.745 342.232 803.696 342.133 803.647V803.565V803.382V803.2V803.018V802.835V802.653V802.471V802.288V802.106V801.924V801.741V801.559V801.377V801.194V801.012V800.83V800.647V800.465V800.283V800.1V799.918V799.736V799.553V799.371V799.189V799.006V798.824V798.642V798.459V798.277V798.095V797.912V797.73V797.548V797.365V797.183V797V796.818V796.636V796.453V796.271V796.089V795.906V795.724V795.542V795.359V795.177V794.995V794.812V794.63V794.448V794.265V794.083V793.901V793.718V793.536V793.354V793.171V792.989V792.807V792.624V792.442V792.26V792.077V791.895V791.713V791.53V791.348V791.166V790.983V790.801V790.618V790.436V790.254V790.071V789.889V789.707V789.524V789.342V789.16V788.977V788.795V788.613V788.43V788.248V788.066V787.883V787.701V787.519V787.336V787.154V786.971V786.789V786.607V786.424V786.242V786.06V785.877V785.695V785.513V785.33V785.148V784.966V784.783V784.601V784.419V784.236V784.054V783.871V783.689V783.507V783.324V783.142V782.96V782.777V782.595V782.413V782.23V782.048V781.865V781.683V781.501V781.318V781.136V780.954V780.771V780.589V780.407V780.224V780.042V779.859V779.677V779.495V779.312V779.13V778.948V778.765V778.583V778.401V778.218V778.036V777.853V777.671V777.489V777.306V777.124V776.942V776.759V776.577V776.394V776.212V776.03V775.847V775.665V775.482V775.3V775.118V774.935V774.753V774.571V774.388V774.206V774.023V773.841V773.659V773.476V773.294V773.112V772.929V772.747V772.564V772.382V772.2V772.017V771.835V771.652V771.47V771.288V771.105V770.923V770.74V770.558V770.376V770.193V770.011V769.828V769.646V769.464V769.281V769.099V768.916V768.734V768.552V768.369V768.187V768.004V767.822V767.64V767.457V767.275V767.092V766.91V766.728V766.545V766.363V766.18V765.998V765.816V765.633V765.451V765.268V765.086V764.904V764.721V764.539V764.356V764.174V763.991V763.809V763.627V763.444V763.262V763.079V762.897V762.714V762.532V762.35V762.167V761.985V761.802V761.62V761.437V761.255V761.073V760.89V760.708V760.525V760.343V760.16V759.978V759.796V759.613V759.431V759.248V759.066V758.883V758.701V758.518V758.336V758.154V757.971V757.789V757.606V757.424V757.241V757.059V756.876V756.694V756.512V756.329V756.147V755.964V755.782V755.599V755.417V755.234V755.052V754.869V754.687V754.505V754.322V754.14V753.957V753.775V753.592V753.41V753.227V753.045V752.862V752.68V752.497V752.315V752.132V751.95V751.767V751.585V751.403V751.22V751.038V750.855V750.673V750.49V750.308V750.125V749.943V749.76V749.578V749.395V749.213V749.03V748.848V748.665V748.483V748.3V748.118V747.935V747.753V747.57V747.388V747.205V747.023V746.84V746.658V746.475V746.293V746.11V745.928V745.745V745.563V745.38V745.198V745.015V744.833V744.65V744.468V744.285V744.103V743.92V743.737V743.555V743.372V743.19V743.007V742.825V742.642V742.46V742.277V742.095V741.912V741.73V741.547V741.365V741.182V741V740.817V740.634V740.452V740.269V740.087V739.904V739.722V739.539V739.357V739.174V738.992V738.809V738.626V738.444V738.261V738.079V737.896V737.714V737.531V737.349V737.166V736.983V736.801V736.618V736.436V736.253V736.07V735.888V735.705V735.523V735.34V735.158V734.975V734.792V734.61V734.427V734.245V734.062V733.88V733.697V733.514V733.332V733.149V732.967V732.784V732.601V732.419V732.236V732.054V731.871V731.688V731.506V731.323V731.141V730.958V730.775V730.593V730.41V730.228V730.045V729.862V729.68V729.497V729.314V729.132V728.949V728.767V728.584V728.401V728.219V728.036V727.853V727.671V727.488V727.305V727.123V726.94V726.758V726.575V726.392V726.21V726.027V725.844V725.662V725.479V725.296V725.114V724.931V724.748V724.566V724.383V724.2V724.018V723.835V723.652V723.47V723.287V723.104V722.922V722.739V722.556V722.374V722.191V722.008V721.826V721.643V721.46V721.278V721.095V720.912V720.73V720.547V720.364V720.182V719.999V719.816V719.633V719.451V719.268V719.085V718.903V718.72V718.537V718.354V718.172V717.989V717.806V717.624V717.441V717.258V717.076V716.893V716.71V716.527V716.345V716.162V715.979V715.796V715.614V715.431V715.248V715.065V714.883V714.7V714.517V714.334V714.152V713.969V713.786V713.604V713.421V713.238V713.055V712.872V712.69V712.507V712.324V712.141V711.959V711.776V711.593V711.41V711.228V711.045V710.862V710.679ZM399.274 381.192L399.915 380.847L399.589 380.195C397.944 376.908 396.531 373.447 395.107 369.958C394.279 367.932 393.448 365.895 392.565 363.878C390.184 358.438 387.457 353.22 383.506 349.118C332.727 296.393 281.343 244.326 229.92 192.22C221.007 183.188 212.093 174.155 203.18 165.117C185.285 146.933 157.069 146.456 139.374 163.441L139.374 163.441C130.355 172.105 125.916 184.793 125.648 197.19C125.38 209.58 129.277 221.811 137.097 229.547C182.739 274.807 227.54 320.946 272.351 367.096C287.66 382.862 302.97 398.63 318.315 414.364C325.505 421.738 333.436 426.413 341.901 428.291C350.367 430.17 359.312 429.237 368.506 425.487C385.763 418.468 396.405 402.138 396.641 382.498C396.994 382.317 397.358 382.142 397.732 381.962L397.739 381.959C398.244 381.716 398.767 381.464 399.274 381.192ZM579.988 261.267V259.457L578.708 260.736C571.385 268.052 564.186 275.227 557.088 282.301C534.437 304.875 512.813 326.427 491.453 348.284L491.452 348.284C489.898 349.878 488.831 352.122 488.141 354.479C487.449 356.846 487.12 359.387 487.081 361.635L487.081 361.644C486.778 410.584 486.854 459.524 486.93 508.461V508.481C486.93 508.482 486.93 508.482 486.93 508.483C486.93 531.769 509.333 551.91 534.184 551.68C558.74 551.45 579.911 531.676 579.988 508.484V508.483C580.064 469.961 580.064 431.439 580.064 392.918V392.917C579.988 350.091 579.988 307.266 579.988 261.267ZM168.616 556.892C191.985 557.122 212.382 538.543 212.922 515.071C214.208 463.329 214.964 411.588 215.644 359.85C215.684 357.784 215.268 355.447 214.505 353.288C213.744 351.134 212.617 349.098 211.191 347.673L211.184 347.667C189.677 326.7 167.95 306.039 146.409 285.556C139.79 279.262 133.189 272.984 126.616 266.72C126.617 266.69 126.616 266.657 126.613 266.622C126.61 266.598 126.605 266.549 126.589 266.491C126.58 266.458 126.537 266.297 126.391 266.152C126.304 266.066 126.168 265.975 125.984 265.945C125.801 265.915 125.645 265.957 125.539 266.008C125.361 266.093 125.268 266.224 125.247 266.254L125.247 266.255C125.189 266.337 125.16 266.414 125.154 266.429C125.142 266.459 125.133 266.486 125.128 266.506C125.115 266.546 125.105 266.588 125.096 266.627C125.077 266.707 125.056 266.808 125.036 266.923C124.955 267.379 124.854 268.161 124.854 268.971C124.854 289.419 124.845 309.871 124.835 330.327C124.807 391.7 124.778 453.097 125.005 514.451C125.082 538.007 144.953 556.585 168.614 556.892L168.616 556.892ZM422.826 374.991L423.071 376.44L424.101 375.392C437.375 361.88 450.45 348.525 463.398 335.301C497.138 300.84 530.014 267.262 563.286 234.078C577.019 220.434 580.469 204.837 577.026 187.178C573.575 169.558 563.033 156.696 545.188 151.778L545.015 152.406L545.188 151.778C536.581 149.409 528.504 149.092 520.922 151.126C513.338 153.16 506.303 157.53 499.761 164.449L499.761 164.449C474.347 191.344 448.542 217.843 422.733 244.347C411 256.396 399.266 268.446 387.568 280.535C383.727 284.483 379.967 288.474 376.172 292.5C374.809 293.948 373.441 295.399 372.063 296.855L371.579 297.367L372.059 297.882C375.065 301.108 378.111 304.27 381.142 307.418C399.772 326.762 417.86 345.544 422.826 374.991Z" stroke="white" stroke-opacity="0.3" stroke-width="1.5"/>
</svg>
